<svg width="23.817" height="12" xmlns="http://www.w3.org/2000/svg">

 <g>
  <title>background</title>
  <rect fill="none" id="canvas_background" height="402" width="582" y="-1" x="-1"/>
 </g>
 <g>
  <title>Layer 1</title>
  <path stroke="null" id="svg_1" fill="#30ba78" d="m41.413,6.456a0.559,0.559 0 0 0 0.2,0.332a0.1,0.1 0 0 0 0.019,0.008a3.1,3.1 0 0 0 0.754,0.064l1,0c0.085,0 0.835,0 0.816,-0.085c-0.09,-0.4 -0.554,-0.473 -0.907,-0.683a1.615,1.615 0 0 1 -0.775,-0.793a1.143,1.143 0 0 1 0.1,-0.81a0.643,0.643 0 0 1 0.372,-0.229a1.573,1.573 0 0 1 0.489,0.012c0.2,0.02 0.394,0.056 0.592,0.081a7.443,7.443 0 0 0 1.153,0.059a6.38,6.38 0 0 0 1.875,-0.324a4.283,4.283 0 0 0 1.192,-0.6c0.406,-0.3 0.3,-0.274 -0.112,-0.232a9.219,9.219 0 0 1 -1.486,0.029a3.157,3.157 0 0 1 -2.207,-0.9a0.18,0.18 0 0 1 0.008,-0.23c0.069,-0.072 0.216,-0.03 0.261,0.008a3.219,3.219 0 0 0 1.836,0.728c0.38,0.019 0.75,0.026 1.129,0.009c0.19,-0.008 0.477,-0.007 0.668,-0.009c0.1,0 0.367,0.027 0.416,-0.077a0.2,0.2 0 0 0 0.013,-0.1c-0.056,-1.52 -0.168,-3.235 -1.759,-3.962c-1.187,-0.542 -2.967,-1.383 -3.718,-1.732a0.267,0.267 0 0 0 -0.378,0.242c0,0.508 0.026,1.238 0.026,1.9a4.893,4.893 0 0 0 -1.429,-0.81a13.465,13.465 0 0 0 -1.618,-0.616a17.347,17.347 0 0 0 -3.414,-0.671a13.085,13.085 0 0 0 -3.933,0.2a12.157,12.157 0 0 0 -5.8,2.957a5.407,5.407 0 0 0 -1.786,3.548a4.792,4.792 0 0 0 1.415,3.914c1.537,1.651 4.846,1.883 6.186,-0.075a3.194,3.194 0 0 0 0.3,-3.051a2.938,2.938 0 0 0 -2.51,-1.714a2.105,2.105 0 0 0 -2.026,1.159a1.671,1.671 0 0 0 0.336,1.76a0.725,0.725 0 0 0 0.659,0.265a0.374,0.374 0 0 0 0.3,-0.3c0.033,-0.224 -0.163,-0.369 -0.283,-0.541a0.831,0.831 0 0 1 0.1,-1.04a1.26,1.26 0 0 1 0.891,-0.288a1.708,1.708 0 0 1 0.86,0.2a1.521,1.521 0 0 1 0.685,1.013a2.025,2.025 0 0 1 -2.107,2.307a2.823,2.823 0 0 1 -1.94,-0.577a2.911,2.911 0 0 1 -0.14,-4.56a4.209,4.209 0 0 1 4.472,-0.254a5.4,5.4 0 0 1 2.046,2.111a12.656,12.656 0 0 1 0.664,1.341a3.044,3.044 0 0 0 0.752,1.208a1.289,1.289 0 0 0 0.9,0.207l1.892,0c0.257,0 0.194,-0.171 0.083,-0.285a1.955,1.955 0 0 0 -0.945,-0.406c-0.778,-0.208 -0.7,-1.208 -0.49,-1.208c0.682,0 0.7,0.02 1.3,0.012a3.934,3.934 0 0 1 1.8,0.188l1.203,1.3zm6.697,-6.061a1.432,1.432 0 1 1 -1.069,-1.068a1.432,1.432 0 0 1 1.069,1.068zm-0.61,0.847a0.388,0.388 0 0 1 -0.487,-0.6a0.38,0.38 0 0 1 0.548,0a0.389,0.389 0 0 1 -0.064,0.599l0.003,0.001z"/>
 </g>
</svg>